<svg xmlns="http://www.w3.org/2000/svg" viewBox="0 0 512 512">
  <defs>
    <linearGradient id="bg" x1="0%" y1="0%" x2="100%" y2="100%">
      <stop offset="0%" stop-color="#0B2B20"/>
      <stop offset="100%" stop-color="#05140F"/>
    </linearGradient>
    <linearGradient id="gold" x1="0%" y1="0%" x2="100%" y2="100%">
      <stop offset="0%" stop-color="#FDE047"/>
      <stop offset="50%" stop-color="#FACC15"/>
      <stop offset="100%" stop-color="#CA8A04"/>
    </linearGradient>
    <filter id="glow" x="-20%" y="-20%" width="140%" height="140%">
      <feGaussianBlur stdDeviation="5" result="blur" />
      <feComposite in="SourceGraphic" in2="blur" operator="over" />
    </filter>
  </defs>
  
  <rect width="512" height="512" rx="112" fill="url(#bg)"/>
  
  <g filter="url(#glow)">
    <!-- Crescent -->
    <path d="M346.7,298.5c-35.3,16.5-77.5,13.7-110.4-8.8c-32.9-22.5-51.5-60.6-49.3-100.9 c1.2-22,8.9-42.6,21.5-60c-26.6,18.8-46.7,46.5-56.9,78.5c-10.2,32-8.5,66.6,5,97.4c13.5,30.8,37.3,56,67.3,71.2 c30,15.2,64.2,19.3,96.3,11.6c32.1-7.7,60.5-26,80.1-51.4C383.6,339.6,364.5,324.5,346.7,298.5z" fill="url(#gold)"/>
    <!-- Star -->
    <path d="M280.7,185L297.5,229.4L344.8,234L308.7,265.2L319.3,311.5L280.7,287.6L242,311.5L252.7,265.2L216.6,234L263.9,229.4L280.7,185z" fill="url(#gold)"/>
  </g>
</svg>
